<?xml version="1.0" standalone="no"?>
<!DOCTYPE svg PUBLIC "-//W3C//DTD SVG 20010904//EN"
 "http://www.w3.org/TR/2001/REC-SVG-20010904/DTD/svg10.dtd">
<svg version="1.0" xmlns="http://www.w3.org/2000/svg"
 width="754.000000pt" height="1280.000000pt" viewBox="0 0 754.000000 1280.000000"
 preserveAspectRatio="xMidYMid meet">
<g transform="translate(0.000000,1280.000000) scale(0.100000,-0.100000)"
fill="#000000" stroke="none">
<path d="M3700 12797 c-3 -3 -86 -10 -185 -16 -785 -49 -1454 -193 -2075 -448
-287 -118 -697 -330 -786 -406 -53 -47 -100 -136 -113 -217 -5 -36 -15 -249
-21 -475 -6 -225 -15 -531 -20 -680 -5 -164 -5 -290 1 -320 21 -113 99 -214
207 -267 40 -19 62 -23 147 -23 115 0 130 6 350 135 458 269 1225 562 1752
669 237 48 346 62 539 68 796 25 1221 -237 1294 -798 35 -271 -20 -573 -144
-788 -148 -258 -362 -444 -699 -606 -411 -198 -836 -289 -1467 -315 -532 -22
-591 -27 -645 -50 -101 -44 -181 -132 -210 -235 -10 -35 -17 -153 -25 -390
-33 -1089 -31 -1016 -15 -1080 32 -124 122 -217 248 -256 67 -21 71 -21 390
-8 482 20 1106 18 1282 -4 385 -48 639 -116 891 -236 149 -72 253 -141 351
-234 225 -214 309 -466 274 -822 -20 -205 -70 -395 -142 -537 -123 -245 -355
-468 -610 -587 -308 -144 -727 -223 -1184 -223 -302 -1 -602 41 -975 133 -480
120 -766 233 -1364 543 -75 39 -84 41 -165 41 -71 0 -96 -5 -142 -27 -98 -45
-166 -121 -203 -226 -11 -31 -18 -124 -26 -350 -40 -1220 -40 -1237 -11 -1314
34 -89 103 -157 219 -216 644 -331 1525 -511 2498 -512 1235 0 2294 287 3118
847 368 250 700 574 925 903 311 454 497 956 551 1485 6 61 15 143 20 183 13
93 13 225 0 310 -5 37 -17 119 -25 182 -113 796 -681 1481 -1550 1866 -77 34
-141 68 -143 75 -1 8 31 35 70 61 278 181 599 484 808 763 472 631 643 1321
524 2125 -19 127 -81 376 -122 485 -189 506 -510 912 -957 1210 -488 325
-1075 504 -1850 566 -155 12 -577 24 -585 16z"/>
</g>
</svg>
